<mxfile host="Electron" agent="Mozilla/5.0 (Windows NT 10.0; Win64; x64) AppleWebKit/537.36 (KHTML, like Gecko) draw.io/28.0.6 Chrome/138.0.7204.100 Electron/37.2.3 Safari/537.36" version="28.0.6">
  <diagram name="Page-1" id="4zwKPOL2WjyDaPacmV4S">
    <mxGraphModel dx="2977" dy="1789" grid="1" gridSize="10" guides="1" tooltips="1" connect="1" arrows="1" fold="1" page="0" pageScale="1" pageWidth="850" pageHeight="1100" math="0" shadow="0">
      <root>
        <mxCell id="0" />
        <mxCell id="1" parent="0" />
        <mxCell id="MghCkuF6DOIniOhHkN8l-1" value="Client Database N (ClientDbContext)" style="whiteSpace=wrap;strokeWidth=2;fillColor=#f8cecc;strokeColor=#b85450;rounded=1;glass=1;shadow=1;" vertex="1" parent="1">
          <mxGeometry x="20" y="174" width="773" height="104" as="geometry" />
        </mxCell>
        <mxCell id="MghCkuF6DOIniOhHkN8l-2" value="Client Database 2 (ClientDbContext)" style="whiteSpace=wrap;strokeWidth=2;fillColor=#dae8fc;strokeColor=#6c8ebf;rounded=1;glass=1;shadow=1;" vertex="1" parent="1">
          <mxGeometry x="813" y="174" width="855" height="104" as="geometry" />
        </mxCell>
        <mxCell id="MghCkuF6DOIniOhHkN8l-3" value="Client Database 1 (ClientDbContext)" style="whiteSpace=wrap;strokeWidth=2;fillColor=#d5e8d4;strokeColor=#82b366;rounded=1;glass=1;shadow=1;" vertex="1" parent="1">
          <mxGeometry x="1688" y="174" width="773" height="104" as="geometry" />
        </mxCell>
        <mxCell id="MghCkuF6DOIniOhHkN8l-4" value="Master Database (AppDbContext)" style="whiteSpace=wrap;strokeWidth=2;fillColor=#ffe6cc;strokeColor=#d79b00;rounded=1;glass=1;shadow=1;" vertex="1" parent="1">
          <mxGeometry x="91" y="20" width="2111" height="104" as="geometry" />
        </mxCell>
        <mxCell id="MghCkuF6DOIniOhHkN8l-5" value="User Management" style="whiteSpace=wrap;strokeWidth=2;fillColor=#f5f5f5;fontColor=#333333;strokeColor=#666666;" vertex="1" parent="1">
          <mxGeometry x="830" y="45" width="187" height="54" as="geometry" />
        </mxCell>
        <mxCell id="MghCkuF6DOIniOhHkN8l-6" value="Authentication" style="whiteSpace=wrap;strokeWidth=2;fillColor=#f5f5f5;fontColor=#333333;strokeColor=#666666;" vertex="1" parent="1">
          <mxGeometry x="1068" y="45" width="166" height="54" as="geometry" />
        </mxCell>
        <mxCell id="MghCkuF6DOIniOhHkN8l-7" value="Client Registration" style="whiteSpace=wrap;strokeWidth=2;fillColor=#f5f5f5;fontColor=#333333;strokeColor=#666666;" vertex="1" parent="1">
          <mxGeometry x="1284" y="45" width="193" height="54" as="geometry" />
        </mxCell>
        <mxCell id="MghCkuF6DOIniOhHkN8l-8" value="Product Data" style="whiteSpace=wrap;strokeWidth=2;fillColor=#f5f5f5;fontColor=#333333;strokeColor=#666666;" vertex="1" parent="1">
          <mxGeometry x="1723" y="199" width="153" height="54" as="geometry" />
        </mxCell>
        <mxCell id="MghCkuF6DOIniOhHkN8l-9" value="RFID Data" style="whiteSpace=wrap;strokeWidth=2;fillColor=#f5f5f5;fontColor=#333333;strokeColor=#666666;" vertex="1" parent="1">
          <mxGeometry x="1925" y="199" width="130" height="54" as="geometry" />
        </mxCell>
        <mxCell id="MghCkuF6DOIniOhHkN8l-10" value="Stock Data" style="whiteSpace=wrap;strokeWidth=2;fillColor=#f5f5f5;fontColor=#333333;strokeColor=#666666;" vertex="1" parent="1">
          <mxGeometry x="2105" y="199" width="136" height="54" as="geometry" />
        </mxCell>
        <mxCell id="MghCkuF6DOIniOhHkN8l-11" value="Sales Data" style="whiteSpace=wrap;strokeWidth=2;fillColor=#f5f5f5;fontColor=#333333;strokeColor=#666666;" vertex="1" parent="1">
          <mxGeometry x="2291" y="199" width="134" height="54" as="geometry" />
        </mxCell>
        <mxCell id="MghCkuF6DOIniOhHkN8l-12" value="Product Data" style="whiteSpace=wrap;strokeWidth=2;fillColor=#f5f5f5;fontColor=#333333;strokeColor=#666666;" vertex="1" parent="1">
          <mxGeometry x="848" y="199" width="153" height="54" as="geometry" />
        </mxCell>
        <mxCell id="MghCkuF6DOIniOhHkN8l-13" value="RFID Data" style="whiteSpace=wrap;strokeWidth=2;fillColor=#f5f5f5;fontColor=#333333;strokeColor=#666666;" vertex="1" parent="1">
          <mxGeometry x="1086" y="199" width="130" height="54" as="geometry" />
        </mxCell>
        <mxCell id="MghCkuF6DOIniOhHkN8l-14" value="Stock Data" style="whiteSpace=wrap;strokeWidth=2;fillColor=#f5f5f5;fontColor=#333333;strokeColor=#666666;" vertex="1" parent="1">
          <mxGeometry x="1312" y="199" width="136" height="54" as="geometry" />
        </mxCell>
        <mxCell id="MghCkuF6DOIniOhHkN8l-15" value="Sales Data" style="whiteSpace=wrap;strokeWidth=2;fillColor=#f5f5f5;fontColor=#333333;strokeColor=#666666;" vertex="1" parent="1">
          <mxGeometry x="1499" y="199" width="134" height="54" as="geometry" />
        </mxCell>
        <mxCell id="MghCkuF6DOIniOhHkN8l-16" value="Product Data" style="whiteSpace=wrap;strokeWidth=2;fillColor=#f5f5f5;fontColor=#333333;strokeColor=#666666;" vertex="1" parent="1">
          <mxGeometry x="55" y="199" width="153" height="54" as="geometry" />
        </mxCell>
        <mxCell id="MghCkuF6DOIniOhHkN8l-17" value="RFID Data" style="whiteSpace=wrap;strokeWidth=2;fillColor=#f5f5f5;fontColor=#333333;strokeColor=#666666;" vertex="1" parent="1">
          <mxGeometry x="258" y="199" width="130" height="54" as="geometry" />
        </mxCell>
        <mxCell id="MghCkuF6DOIniOhHkN8l-18" value="Stock Data" style="whiteSpace=wrap;strokeWidth=2;fillColor=#f5f5f5;fontColor=#333333;strokeColor=#666666;" vertex="1" parent="1">
          <mxGeometry x="437" y="199" width="136" height="54" as="geometry" />
        </mxCell>
        <mxCell id="MghCkuF6DOIniOhHkN8l-19" value="Sales Data" style="whiteSpace=wrap;strokeWidth=2;fillColor=#f5f5f5;fontColor=#333333;strokeColor=#666666;" vertex="1" parent="1">
          <mxGeometry x="624" y="199" width="134" height="54" as="geometry" />
        </mxCell>
        <mxCell id="MghCkuF6DOIniOhHkN8l-20" value="" style="curved=1;startArrow=none;endArrow=block;exitX=1;exitY=0.6;entryX=0.5;entryY=0;rounded=0;fillColor=#f5f5f5;strokeColor=#666666;" edge="1" parent="1" source="MghCkuF6DOIniOhHkN8l-5" target="MghCkuF6DOIniOhHkN8l-8">
          <mxGeometry relative="1" as="geometry">
            <Array as="points">
              <mxPoint x="1799" y="124" />
            </Array>
          </mxGeometry>
        </mxCell>
        <mxCell id="MghCkuF6DOIniOhHkN8l-21" value="" style="curved=1;startArrow=none;endArrow=block;exitX=0.5;exitY=1;entryX=0.5;entryY=0;rounded=0;fillColor=#f5f5f5;strokeColor=#666666;" edge="1" parent="1" source="MghCkuF6DOIniOhHkN8l-5" target="MghCkuF6DOIniOhHkN8l-12">
          <mxGeometry relative="1" as="geometry">
            <Array as="points" />
          </mxGeometry>
        </mxCell>
        <mxCell id="MghCkuF6DOIniOhHkN8l-22" value="" style="curved=1;startArrow=none;endArrow=block;exitX=0;exitY=0.61;entryX=0.5;entryY=0;rounded=0;fillColor=#f5f5f5;strokeColor=#666666;" edge="1" parent="1" source="MghCkuF6DOIniOhHkN8l-5" target="MghCkuF6DOIniOhHkN8l-16">
          <mxGeometry relative="1" as="geometry">
            <Array as="points">
              <mxPoint x="131" y="124" />
            </Array>
          </mxGeometry>
        </mxCell>
        <mxCell id="MghCkuF6DOIniOhHkN8l-23" value="" style="curved=1;startArrow=none;endArrow=block;exitX=1;exitY=0.6;entryX=0.5;entryY=0;rounded=0;fillColor=#f5f5f5;strokeColor=#666666;" edge="1" parent="1" source="MghCkuF6DOIniOhHkN8l-6" target="MghCkuF6DOIniOhHkN8l-9">
          <mxGeometry relative="1" as="geometry">
            <Array as="points">
              <mxPoint x="1990" y="124" />
            </Array>
          </mxGeometry>
        </mxCell>
        <mxCell id="MghCkuF6DOIniOhHkN8l-24" value="" style="curved=1;startArrow=none;endArrow=block;exitX=0.5;exitY=1;entryX=0.5;entryY=0;rounded=0;fillColor=#f5f5f5;strokeColor=#666666;" edge="1" parent="1" source="MghCkuF6DOIniOhHkN8l-6" target="MghCkuF6DOIniOhHkN8l-13">
          <mxGeometry relative="1" as="geometry">
            <Array as="points" />
          </mxGeometry>
        </mxCell>
        <mxCell id="MghCkuF6DOIniOhHkN8l-25" value="" style="curved=1;startArrow=none;endArrow=block;exitX=0;exitY=0.6;entryX=0.5;entryY=0;rounded=0;fillColor=#f5f5f5;strokeColor=#666666;" edge="1" parent="1" source="MghCkuF6DOIniOhHkN8l-6" target="MghCkuF6DOIniOhHkN8l-17">
          <mxGeometry relative="1" as="geometry">
            <Array as="points">
              <mxPoint x="323" y="124" />
            </Array>
          </mxGeometry>
        </mxCell>
        <mxCell id="MghCkuF6DOIniOhHkN8l-26" value="" style="curved=1;startArrow=none;endArrow=block;exitX=1;exitY=0.62;entryX=0.5;entryY=0;rounded=0;fillColor=#f5f5f5;strokeColor=#666666;" edge="1" parent="1" source="MghCkuF6DOIniOhHkN8l-7" target="MghCkuF6DOIniOhHkN8l-10">
          <mxGeometry relative="1" as="geometry">
            <Array as="points">
              <mxPoint x="2173" y="124" />
            </Array>
          </mxGeometry>
        </mxCell>
        <mxCell id="MghCkuF6DOIniOhHkN8l-27" value="" style="curved=1;startArrow=none;endArrow=block;exitX=0.5;exitY=1;entryX=0.5;entryY=0;rounded=0;fillColor=#f5f5f5;strokeColor=#666666;" edge="1" parent="1" source="MghCkuF6DOIniOhHkN8l-7" target="MghCkuF6DOIniOhHkN8l-14">
          <mxGeometry relative="1" as="geometry">
            <Array as="points" />
          </mxGeometry>
        </mxCell>
        <mxCell id="MghCkuF6DOIniOhHkN8l-28" value="" style="curved=1;startArrow=none;endArrow=block;exitX=0;exitY=0.61;entryX=0.5;entryY=0;rounded=0;fillColor=#f5f5f5;strokeColor=#666666;" edge="1" parent="1" source="MghCkuF6DOIniOhHkN8l-7" target="MghCkuF6DOIniOhHkN8l-18">
          <mxGeometry relative="1" as="geometry">
            <Array as="points">
              <mxPoint x="506" y="124" />
            </Array>
          </mxGeometry>
        </mxCell>
      </root>
    </mxGraphModel>
  </diagram>
</mxfile>
